<?xml version="1.0" encoding="utf-8"?>
<!-- Generator: Adobe Illustrator 16.0.0, SVG Export Plug-In . SVG Version: 6.00 Build 0)  -->
<!DOCTYPE svg PUBLIC "-//W3C//DTD SVG 1.1//EN" "http://www.w3.org/Graphics/SVG/1.1/DTD/svg11.dtd">
<svg version="1.1" id="Layer_1" xmlns="http://www.w3.org/2000/svg" xmlns:xlink="http://www.w3.org/1999/xlink" x="0px" y="0px"
   width="122.702px" height="118.588px" viewBox="0 0 122.702 118.588" enable-background="new 0 0 122.702 118.588"
   xml:space="preserve">
<g>
  <path fill="#EF7C2C" d="M61.503,6.103c29.562,0,53.527,23.966,53.527,53.527c0,29.564-23.965,53.527-53.527,53.527
    c-29.562,0-53.526-23.963-53.526-53.527C7.976,30.068,31.941,6.103,61.503,6.103 M61.503,3.75c-30.812,0-55.88,25.067-55.88,55.88
    c0,30.811,25.068,55.879,55.88,55.879c30.812,0,55.879-25.068,55.879-55.879C117.382,28.817,92.315,3.75,61.503,3.75L61.503,3.75z
     M87.347,84.554v-2.352h-6.443v7.955h2.352v-5.604H87.347z M80.904,94.246v7.863v0.092h2.352v-0.092v-5.512h4.092v-0.09v-2.262
    v-0.092h-6.443V94.246z M90.353,94.246v7.863v0.092h2.35v-0.092v-5.512h4.093v-0.09v-2.262v-0.092h-6.442V94.246z M96.796,84.554
    v-2.352h-6.442v7.955h2.35v-5.604H96.796z M51.622,82.253h-5.685v7.803h5.685V82.253z M46.011,78.061h5.685v-7.803h-5.685V78.061z
     M55.616,66.064h5.685v-7.799h-5.685V66.064z M46.087,102.047h5.683v-7.801h-5.683V102.047z M61.52,113.157v-6.917h-5.684v6.616
    c1.863,0.193,3.753,0.301,5.666,0.301C61.508,113.157,61.512,113.157,61.52,113.157z M45.864,66.064h5.685v-7.799h-5.685V66.064z
     M51.769,106.24h-5.683v4.651c1.852,0.557,3.75,1.011,5.683,1.367V106.24z M101.678,72.227h11.847
    c0.187-0.778,0.36-1.559,0.514-2.35h-12.36V72.227z M101.678,66.064h12.954c0.093-0.778,0.167-1.562,0.227-2.351h-13.181V66.064z
     M65.511,78.061h5.683v-7.803h-5.683V78.061z M101.784,94.857V90.75h3.259c0.55-0.771,1.081-1.553,1.591-2.354h-4.848v-3.843h7.089
    c0.407-0.777,0.796-1.558,1.167-2.354h-8.256v-3.812h9.856c0.29-0.773,0.562-1.558,0.815-2.35h-10.779v0.026l-2.769-1.368V59.863
    h2.907h13.206c0-0.079,0.005-0.156,0.005-0.235c0-0.71-0.026-1.413-0.055-2.116h-10.807v-3.37h10.584
    c-0.081-0.79-0.185-1.573-0.301-2.353h-8.036c0.634-2.116,2.937-3.689,5.674-3.689c0.604,0,1.187,0.088,1.732,0.23
    c-0.179-0.837-0.378-1.671-0.598-2.491c-0.374-0.045-0.748-0.092-1.137-0.092c-4.063,0-7.438,2.621-8.08,6.042h-2.192v5.721h-2.907
    V26.675h-3.971v-4.182H71.838v4.182h-4.315v19.076H53.606v-3.66h4.084v-7.838h4.248l-13.656-7.801l-13.653,7.801h4.248v7.838h4.083
    v3.66h-8.226v7.97h4.143v4.547H21.89V36.996h-2.352v21.27h-6.795v11.915v2.353v9.177c0.713,1.571,1.498,3.099,2.354,4.584v-1.705
    h4.442v8.251c1.045,1.318,2.149,2.587,3.313,3.8h3.153v3.039c0.765,0.679,1.55,1.331,2.352,1.967V96.64h4.247v8.036
    c0.77,0.496,1.555,0.971,2.352,1.428V96.64h3.919v11.503c0.775,0.36,1.558,0.706,2.353,1.029V53.719H75.98v22.399v35.042
    c0.793-0.22,1.575-0.461,2.354-0.716V77.579l10.55-5.215l10.55,5.215v19.816C100.248,96.578,101.024,95.729,101.784,94.857z
     M53.606,34.251h1.731v5.488h-1.731V34.251z M19.539,82.233h-4.442v-9.702h4.442V82.233z M19.539,70.181h-4.442v-9.563h4.442
    V70.181z M26.005,94.286h-4.117v-9.699h4.117V94.286z M26.005,82.233h-4.117v-9.702h4.117V82.233z M26.005,70.181h-4.117v-9.563
    h4.117V70.181z M32.604,94.286h-4.247v-9.699h4.247V94.286z M32.604,82.233h-4.247v-9.702h4.247V82.233z M32.604,70.181h-4.247
    v-9.563h4.247V70.181z M38.875,94.286h-3.919v-9.699h3.919V94.286z M38.875,82.233h-3.919v-9.702h3.919V82.233z M38.875,70.181
    h-3.919v-9.563h3.919V70.181z M74.189,29.139h1.791v16.61h-1.791V29.139z M69.873,29.026h1.965v0.113v16.61h-1.965V29.026z
     M48.282,29.161l4.799,2.738h-9.595L48.282,29.161z M51.255,42.089v3.66h-5.946v-3.66H51.255z M45.308,39.741v-5.488h1.797v5.488
    H45.308z M49.459,39.741v-5.488h1.796v5.488H49.459z M41.227,39.741v-5.488h1.731v5.488H41.227z M80.124,74.07l-1.791,0.887V53.719
    h1.791V74.07z M80.124,51.368H37.086v-3.265h43.038V51.368z M80.124,45.749h-1.791v-16.61h1.791V45.749z M84.303,72.004
    l-1.83,0.905v-19.19v-7.97v-16.61h1.83V72.004z M88.448,69.956l-1.791,0.884V29.139h1.791V69.956z M92.589,71.571l-1.791-0.883
    V29.139h1.791V71.571z M92.589,26.675H74.189v-1.828h18.399V26.675z M96.559,57.513v16.023l-1.618-0.8V29.139v-0.113h1.618V57.513z
     M71.122,82.253h-5.683v7.803h5.683V82.253z M65.587,102.047h5.684v-7.801h-5.684V102.047z M65.364,66.064h5.685v-7.799h-5.685
    V66.064z M61.372,82.253h-5.685v7.803h5.685V82.253z M55.761,78.061h5.685v-7.803h-5.685V78.061z M71.27,106.24h-5.684v6.746
    c1.924-0.144,3.821-0.39,5.684-0.732V106.24z M55.837,102.047h5.684v-7.801h-5.684V102.047z"/>
</g>
</svg>
