<?xml version="1.0" encoding="UTF-8"?>
<svg width="493px" height="137px" viewBox="0 0 133 137" version="1.1" xmlns="http://www.w3.org/2000/svg" xmlns:xlink="http://www.w3.org/1999/xlink">
    <defs></defs>
    <g id="Page-1" stroke="none" stroke-width="1" fill="none" fill-rule="evenodd">
        <g id="logo_slogan">
            <g id="Group" fill-rule="nonzero">
                <path d="M68.5,2.9 C104.7,2.9 134.1,32.3 134.1,68.5 C134.1,104.7 104.7,134.1 68.5,134.1 C32.3,134.1 2.9,104.7 2.9,68.5 C2.9,32.3 32.3,2.9 68.5,2.9 Z M68.5,0 C30.8,0 0,30.7 0,68.5 C0,106.2 30.7,137 68.5,137 C106.2,137 137,106.3 137,68.5 C136.9,30.8 106.2,0 68.5,0 Z M100.1,99 L100.1,96.1 L92.2,96.1 L92.2,105.8 L95.1,105.8 L95.1,99 L100.1,99 Z M92.2,110.9 L92.2,120.5 L92.2,120.6 L95.1,120.6 L95.1,120.5 L95.1,113.7 L100.1,113.7 L100.1,113.6 L100.1,110.8 L100.1,110.7 L92.2,110.7 L92.2,110.9 Z M103.8,110.9 L103.8,120.5 L103.8,120.6 L106.7,120.6 L106.7,120.5 L106.7,113.7 L111.7,113.7 L111.7,113.6 L111.7,110.8 L111.7,110.7 L103.8,110.7 L103.8,110.9 Z M111.7,99 L111.7,96.1 L103.8,96.1 L103.8,105.8 L106.7,105.8 L106.7,99 L111.7,99 Z M56.4,96.2 L49.4,96.2 L49.4,105.8 L56.4,105.8 L56.4,96.2 Z M49.5,91.1 L56.5,91.1 L56.5,81.5 L49.5,81.5 L49.5,91.1 Z M61.3,76.4 L68.3,76.4 L68.3,66.8 L61.3,66.8 L61.3,76.4 Z M49.6,120.5 L56.6,120.5 L56.6,110.9 L49.6,110.9 L49.6,120.5 Z M68.5,134.1 L68.5,125.6 L61.5,125.6 L61.5,133.7 C63.8,133.9 66.1,134.1 68.5,134.1 Z M49.3,76.4 L56.3,76.4 L56.3,66.8 L49.3,66.8 L49.3,76.4 Z M56.6,125.6 L49.6,125.6 L49.6,131.3 C51.9,132 54.2,132.5 56.6,133 L56.6,125.6 Z M117.7,83.9 L132.2,83.9 C132.4,82.9 132.6,82 132.8,81 L117.7,81 L117.7,83.9 Z M117.7,76.4 L133.6,76.4 C133.7,75.4 133.8,74.5 133.9,73.5 L117.8,73.5 L117.7,76.4 Z M73.4,91.1 L80.4,91.1 L80.4,81.5 L73.4,81.5 L73.4,91.1 Z M117.8,111.7 L117.8,106.7 L121.8,106.7 C122.5,105.8 123.1,104.8 123.7,103.8 L117.8,103.8 L117.8,99 L126.5,99 C127,98 127.5,97.1 127.9,96.1 L117.8,96.1 L117.8,91.4 L129.9,91.4 C130.3,90.5 130.6,89.5 130.9,88.5 L117.7,88.5 L114.3,86.8 L114.3,68.6 L117.9,68.6 L134,68.6 C134,68.5 134,68.4 134,68.3 C134,67.4 134,66.6 133.9,65.7 L120.7,65.7 L120.7,61.6 L133.7,61.6 C133.6,60.6 133.5,59.7 133.3,58.7 L123.5,58.7 C124.3,56.1 127.1,54.2 130.5,54.2 C131.2,54.2 132,54.3 132.6,54.5 C132.4,53.5 132.1,52.5 131.9,51.4 C131.4,51.3 131,51.3 130.5,51.3 C125.5,51.3 121.4,54.5 120.6,58.7 L117.9,58.7 L117.9,65.7 L114.3,65.7 L114.3,27.9 L109.4,27.9 L109.4,23 L81.1,23 L81.1,28.1 L75.8,28.1 L75.8,51.5 L58.8,51.5 L58.8,47 L63.8,47 L63.8,37.4 L69,37.4 L52.3,27.8 L35.6,37.4 L40.8,37.4 L40.8,47 L45.8,47 L45.8,51.5 L35.7,51.5 L35.7,61.3 L40.8,61.3 L40.8,66.9 L20,66.9 L20,40.8 L17.1,40.8 L17.1,66.9 L8.8,66.9 L8.8,81.5 L8.8,84.4 L8.8,95.6 C9.7,97.5 10.6,99.4 11.7,101.2 L11.7,99.1 L17.1,99.1 L17.1,109.2 C18.4,110.8 19.7,112.4 21.2,113.9 L25.1,113.9 L25.1,117.6 C26,118.4 27,119.2 28,120 L28,113.9 L33.2,113.9 L33.2,123.7 C34.1,124.3 35.1,124.9 36.1,125.4 L36.1,113.8 L40.9,113.8 L40.9,127.9 C41.9,128.3 42.8,128.8 43.8,129.2 L43.8,61.3 L86.4,61.3 L86.4,88.7 L86.4,131.6 C87.4,131.3 88.3,131 89.3,130.7 L89.3,90.4 L102.2,84 L115.1,90.4 L115.1,114.7 C115.9,113.8 116.9,112.7 117.8,111.7 Z M58.8,37.4 L60.9,37.4 L60.9,44.1 L58.8,44.1 L58.8,37.4 Z M17.1,96.2 L11.7,96.2 L11.7,84.3 L17.1,84.3 L17.1,96.2 Z M17.1,81.4 L11.7,81.4 L11.7,69.7 L17.1,69.7 L17.1,81.4 Z M25,111 L20,111 L20,99.1 L25,99.1 L25,111 Z M25,96.2 L20,96.2 L20,84.3 L25,84.3 L25,96.2 Z M25,81.4 L20,81.4 L20,69.7 L25,69.7 L25,81.4 Z M33.1,111 L27.9,111 L27.9,99.1 L33.1,99.1 L33.1,111 Z M33.1,96.2 L27.9,96.2 L27.9,84.3 L33.1,84.3 L33.1,96.2 Z M33.1,81.4 L27.9,81.4 L27.9,69.7 L33.1,69.7 L33.1,81.4 Z M40.8,111 L36,111 L36,99.1 L40.8,99.1 L40.8,111 Z M40.8,96.2 L36,96.2 L36,84.3 L40.8,84.3 L40.8,96.2 Z M40.8,81.4 L36,81.4 L36,69.7 L40.8,69.7 L40.8,81.4 Z M84,31.2 L86.2,31.2 L86.2,51.5 L84,51.5 L84,31.2 Z M78.7,31 L81.1,31 L81.1,31.1 L81.1,51.4 L78.7,51.4 L78.7,31 Z M52.3,31.2 L58.2,34.6 L46.4,34.6 L52.3,31.2 Z M55.9,51.5 L48.6,51.5 L48.6,47 L55.9,47 L55.9,51.5 Z M48.6,37.4 L50.8,37.4 L50.8,44.1 L48.6,44.1 L48.6,37.4 Z M53.7,37.4 L55.9,37.4 L55.9,44.1 L53.7,44.1 L53.7,37.4 Z M43.6,37.4 L45.7,37.4 L45.7,44.1 L43.6,44.1 L43.6,37.4 Z M91.3,86.2 L89.1,87.3 L89.1,61.3 L91.3,61.3 L91.3,86.2 Z M91.3,58.4 L38.6,58.4 L38.6,54.4 L91.3,54.4 L91.3,58.4 Z M91.3,51.5 L89.1,51.5 L89.1,31.2 L91.3,31.2 L91.3,51.5 Z M96.4,83.7 L94.2,84.8 L94.2,61.3 L94.2,51.5 L94.2,31.2 L96.4,31.2 L96.4,83.7 Z M101.5,81.1 L99.3,82.2 L99.3,31.1 L101.5,31.1 L101.5,81.1 Z M106.6,83.1 L104.4,82 L104.4,31.1 L106.6,31.1 L106.6,83.1 Z M106.6,28.1 L84,28.1 L84,25.9 L106.5,25.9 L106.5,28.1 L106.6,28.1 Z M111.4,65.9 L111.4,85.5 L109.4,84.5 L109.4,31.1 L109.4,31 L111.4,31 L111.4,65.9 Z M80.3,96.2 L73.3,96.2 L73.3,105.8 L80.3,105.8 L80.3,96.2 Z M73.5,120.5 L80.5,120.5 L80.5,110.9 L73.5,110.9 L73.5,120.5 Z M73.2,76.4 L80.2,76.4 L80.2,66.8 L73.2,66.8 L73.2,76.4 Z M68.3,96.2 L61.3,96.2 L61.3,105.8 L68.3,105.8 L68.3,96.2 Z M61.4,91.1 L68.4,91.1 L68.4,81.5 L61.4,81.5 L61.4,91.1 Z M80.4,125.6 L73.4,125.6 L73.4,133.9 C75.8,133.7 78.1,133.4 80.4,133 L80.4,125.6 Z M61.5,120.5 L68.5,120.5 L68.5,110.9 L61.5,110.9 L61.5,120.5 Z" id="Shape" fill="#EF7C2C"></path>
            </g>
            <text id="®" fill="#424242" font-family="Helvetica" font-size="24" font-weight="normal">
                <tspan x="475" y="49">®</tspan>
            </text>
        </g>
    </g>
</svg>
